<svg width="70" height="70" viewBox="0 0 70 70" fill="none" xmlns="http://www.w3.org/2000/svg">
<path d="M5.83334 27.2223C5.83334 15.4095 15.4095 5.83334 27.2223 5.83334C39.0352 5.83334 48.6112 15.4095 48.6112 27.2223C48.6112 39.0352 39.0352 48.6112 27.2223 48.6112C15.4095 48.6112 5.83334 39.0352 5.83334 27.2223ZM27.2223 0C12.1878 0 0 12.1878 0 27.2223C0 42.2567 12.1878 54.4445 27.2223 54.4445C33.6887 54.4445 39.6286 52.1897 44.2988 48.4237L65.0211 69.1457C66.1602 70.2848 68.0067 70.2848 69.1457 69.1457C70.2848 68.0067 70.2848 66.1602 69.1457 65.0211L48.4237 44.2988C52.1897 39.6286 54.4445 33.6887 54.4445 27.2223C54.4445 12.1878 42.2567 0 27.2223 0Z" fill="#212121"/>
</svg>
